<?xml version="1.0" encoding="UTF-8" standalone="no"?>
<!DOCTYPE svg PUBLIC "-//W3C//DTD SVG 1.1//EN" "http://www.w3.org/Graphics/SVG/1.1/DTD/svg11.dtd">
<svg width="100%" height="100%" viewBox="0 0 1024 409" version="1.1" xmlns="http://www.w3.org/2000/svg" xmlns:xlink="http://www.w3.org/1999/xlink" xml:space="preserve" style="fill-rule:evenodd;clip-rule:evenodd;stroke-linejoin:round;stroke-miterlimit:1.41421;">
    <g id="XMLID_352_">
        <path id="XMLID_363_" d="M996.4,393L19.5,393C14.8,393 11,389.1 11,384.5C11,379.9 14.8,376 19.5,376L996.4,376C1001.1,376 1004.9,379.9 1004.9,384.5C1004.9,389.1 1001.1,393 996.4,393Z" style="fill:rgb(61,127,193);fill-rule:nonzero;"/>
        <path id="XMLID_362_" d="M507.6,270.8C505,270.8 502.6,269.4 501.3,267.1L422.7,120.2C420.9,116.8 422.3,112.7 425.7,110.9C429.2,109.2 433.5,110.5 435.3,113.8L513.9,260.7C515.7,264.1 514.3,268.2 510.9,270C509.8,270.6 508.7,270.8 507.6,270.8Z" style="fill:rgb(61,127,193);fill-rule:nonzero;"/>
        <path id="XMLID_361_" d="M408.4,393L19.4,393C14.2,393 9.9,388.9 9.9,383.8C9.9,378.7 14.1,374.6 19.4,374.6L408.4,374.6C427.3,374.6 444.4,364.5 453.2,348.2L582.3,99.6C594.3,77.2 617.9,63.3 643.9,63.3L885,63.3L849.7,31.5C845.9,28.1 845.7,22.3 849.2,18.5C852.8,14.8 858.7,14.6 862.6,18L933.2,81.5L643.8,81.5C624.9,81.5 607.8,91.6 599,107.9L470,356.7C458,379.1 434.4,393 408.4,393Z" style="fill:rgb(51,145,254);fill-rule:nonzero;"/>
        <path id="XMLID_360_" d="M303.8,345.7C277.3,345.7 255.2,336.6 239.8,319.4C226.7,304.6 219.4,285 219.4,264C219.4,260.2 222.6,257.1 226.5,257.1C230.4,257.1 233.6,260.2 233.6,264C233.6,281.4 239.8,298.4 250.5,310.4C263,324.5 281.4,331.9 303.7,331.9C332.8,331.9 353.3,321 364.8,299.5C368.8,292 369.5,283.4 366.8,275.3C364,267.1 358.1,260.4 350.1,256.6L251,208.9C239.3,203.3 230.5,193.1 226.8,181C223.1,168.9 224.8,155.7 231.4,144.9C249.8,114.7 283.1,108.4 307.8,108.4C327.8,108.4 347.7,116.1 362.5,129.6C374.2,140.3 388,159.5 388,190.3C388,194.1 384.8,197.2 380.9,197.2C377,197.2 373.8,194.1 373.8,190.3C373.8,146.1 339.8,122.2 307.8,122.2C277.3,122.2 255.7,132.2 243.6,152C238.9,159.7 237.8,168.6 240.4,177.2C243,185.8 249,192.7 257.3,196.7L356.4,244.5C367.8,250 376.3,259.5 380.3,271.3C384.2,282.9 383.2,295.2 377.4,306C367.7,324.1 347.1,345.7 303.8,345.7Z" style="fill:white;fill-rule:nonzero;"/>
        <path id="XMLID_358_" d="M783.7,146.7C775,129.3 756.5,108.5 717.8,108.5C676.6,108.5 653.8,125.9 642.3,140.6C640.9,142.3 638.1,144.1 638.1,145.8L638.1,115.3C638.1,111.5 635,108.4 631.1,108.4C627.2,108.4 624.1,111.5 624.1,115.3L624.1,338.9C624.1,342.7 627.2,345.8 631.1,345.8C635,345.8 638.1,342.7 638.1,338.9L638.1,188.6C638.1,177.6 642.1,163.5 653.6,148.9C667.5,131.2 689.3,122.2 717.7,122.2C777.6,122.2 779.1,181.4 779.1,183.9L779.1,338.8C779.1,342.6 782.2,345.7 786.1,345.7C790,345.7 793.1,342.6 793.1,338.8L793.1,183.9C793,183.2 792.8,165 783.7,146.7Z" style="fill:white;fill-rule:nonzero;"/>
        <path id="XMLID_357_" d="M916.8,345.7C884,345.7 864.4,329.8 853.8,316.5C840.2,299.5 835.2,279.5 835.1,266.6L835.1,261.5C834.9,241.1 834.7,206.9 835.1,189.1C835.3,180.5 837.5,158.2 852.9,138.5C863.5,125 883.7,108.9 920.1,108.9C962,108.9 982.4,131 992.2,149.4C1002.5,169 1003.1,188.4 1003.1,189.2C1003.2,193 1000.1,196.1 996.2,196.2C992.3,196.3 989,193.3 989,189.5C988.9,186.7 986.4,122.6 920.2,122.6C895.6,122.6 876.8,130.7 864.3,146.7C851,163.7 849.5,183.6 849.4,189.3C848.9,206.9 849.2,241 849.4,261.3L849.4,266.4C849.5,276.6 853.6,293.6 865.1,308C873.8,318.9 889.9,331.9 916.9,331.9C945.8,331.9 966.4,322.4 978.3,303.8C988.3,288.1 989,270.1 989,265C989,261.2 992.2,258.1 996.1,258.1C1000,258.1 1003.2,261.2 1003.2,265C1003.2,272.7 1001.9,292.7 990.4,311C972.1,339.6 940.3,345.7 916.8,345.7Z" style="fill:white;fill-rule:nonzero;"/>
        <path id="XMLID_353_" d="M152.7,133C138.9,116.9 118.8,108.4 93.7,108.4C67.1,108.4 45.2,116.2 29.9,131C27.1,133.7 27.2,138 30,140.7C32.8,143.4 37.3,143.4 40.1,140.7C52.8,128.4 70.8,122.1 93.8,122.1C140.5,122.1 156.9,155.2 156.9,186.3L156.9,193.6C147.9,198 129,209.1 91.9,209.1C66.5,209.1 47.1,216.1 32.1,230.6C4.3,257.6 15.1,302.7 34.7,321.7C50.6,337.2 71.6,346 93.7,346C93.8,346 93.9,346 93.9,346C115.5,346 135.8,337.1 151.1,322.1L151.6,321C153.7,321 156.9,317.2 156.9,314.9L156.9,338.9C156.9,342.7 159.5,345.8 163.4,345.8C167.3,345.8 169.9,342.7 169.9,338.9L169.9,186.3C170,165.6 164.4,146.6 152.7,133ZM140.9,312.4L140.9,312.7C128.3,325 111.7,332 94.1,332C94,332 94,332 93.9,332C75.6,332 58.2,324.8 44.9,311.9C37.4,304.6 31.6,291.5 30.1,278.6C28.9,267.8 30,252.4 42.4,240.5C54.6,228.7 70.6,223 92,223C123.8,223 146,215.5 157,209.5L157,265.9C157,286.9 152.2,301.3 140.9,312.4Z" style="fill:white;fill-rule:nonzero;"/>
    </g>
</svg>
