<?xml version="1.0" encoding="UTF-8" standalone="no"?>
<!DOCTYPE svg PUBLIC "-//W3C//DTD SVG 1.1//EN" "http://www.w3.org/Graphics/SVG/1.1/DTD/svg11.dtd">
<svg width="100%" height="100%" viewBox="0 0 1050 267" version="1.1" xmlns="http://www.w3.org/2000/svg" xmlns:xlink="http://www.w3.org/1999/xlink" xml:space="preserve" style="fill-rule:evenodd;clip-rule:evenodd;stroke-linejoin:round;stroke-miterlimit:1.41421;">
    <g transform="matrix(4.16667,0,0,4.16667,0,0)">
        <path d="M120.656,56.823C120.633,56.922 120.609,57.04 120.606,57.119C120.6,57.316 120.695,57.414 120.971,57.414C121.484,57.414 122.766,56.863 123.488,56.508L124.743,50.534L127.618,50.139L125.56,59.919L123.192,59.919L123.203,59.032C121.679,59.742 120.482,60.116 119.377,60.116C118.114,60.116 117.647,59.367 117.689,58.164C117.703,57.77 117.754,57.454 117.826,57.06L119.199,50.534L122.054,50.139L120.656,56.823Z" style="fill:white;fill-rule:nonzero;"/>
        <path d="M127.799,59.485L128.404,57.435C129.125,57.691 129.945,57.928 130.992,57.928C131.917,57.928 131.988,57.651 132.083,57.198C132.177,56.764 131.909,56.528 130.843,55.956C128.869,54.891 128.813,54.182 129.121,52.742C129.567,50.671 130.199,50.12 132.862,50.12C133.77,50.12 134.927,50.316 135.707,50.573L135.18,52.663C134.477,52.466 133.437,52.308 132.765,52.308C131.937,52.308 131.815,52.407 131.699,52.919C131.603,53.373 131.699,53.471 132.609,53.964C134.778,55.147 135.099,55.561 134.769,57.08C134.298,59.248 133.638,60.116 130.757,60.116C129.869,60.116 128.634,59.86 127.799,59.485Z" style="fill:white;fill-rule:nonzero;"/>
        <path d="M141.861,52.821C141.873,52.486 141.583,52.268 141.072,52.268C140.064,52.268 139.748,52.84 139.583,53.629L139.441,54.299C139.917,54.182 140.138,54.142 140.716,53.964C141.472,53.747 141.839,53.393 141.861,52.821ZM136.796,53.747C137.269,51.539 138.304,50.12 141.343,50.12C143.158,50.12 144.511,50.908 144.455,52.525C144.39,54.398 143.392,55.266 141,55.976C139.824,56.331 139.804,56.331 138.968,56.548L138.826,57.218C138.755,57.573 138.783,57.888 139.296,57.888C140.302,57.888 141.779,57.395 143.101,56.823L143.566,58.795C142.376,59.525 140.521,60.116 138.824,60.116C136.832,60.116 136.013,59.248 136.07,57.612C136.082,57.257 136.135,56.863 136.228,56.449L136.796,53.747Z" style="fill:white;fill-rule:nonzero;"/>
        <path d="M151.65,52.643C150.402,53.314 149.939,53.57 148.81,54.26L147.607,59.919L144.826,59.919L146.791,50.553L149.251,50.139L149.146,51.44C150.093,50.889 150.857,50.494 151.697,50.139L151.65,52.643Z" style="fill:white;fill-rule:nonzero;"/>
        <path d="M158.14,46.294L161.015,45.9L160.38,48.857L157.525,49.252L158.14,46.294ZM157.244,50.534L160.119,50.139L158.041,59.919L155.257,59.919L157.244,50.534Z" style="fill:white;fill-rule:nonzero;"/>
        <path d="M167.341,53.393C167.365,53.274 167.388,53.176 167.39,53.097C167.398,52.899 167.302,52.821 167.025,52.821C166.513,52.821 165.273,53.333 164.507,53.727L163.207,59.919L160.425,59.919L162.39,50.553L164.851,50.139L164.794,51.204C166.318,50.494 167.515,50.12 168.619,50.12C169.902,50.12 170.349,50.849 170.308,52.071C170.296,52.407 170.267,52.683 170.169,53.176L168.751,59.919L165.968,59.919L167.341,53.393Z" style="fill:white;fill-rule:nonzero;"/>
        <path d="M175.871,52.545L174.853,57.336C174.832,57.435 174.808,57.533 174.806,57.592C174.8,57.73 174.878,57.789 175.076,57.789C175.548,57.789 176.087,57.592 176.587,57.395L177.074,59.328C176.269,59.762 175.113,60.116 173.988,60.116C172.587,60.116 171.861,59.446 171.9,58.302C171.906,58.164 171.931,58.026 171.955,57.888L173.089,52.545L171.667,52.545L172.14,50.316L173.56,50.316L174.037,48.01L176.91,47.615L176.341,50.316L178.63,50.316L178.001,52.545L175.871,52.545Z" style="fill:white;fill-rule:nonzero;"/>
        <path d="M184.244,52.821C184.255,52.486 183.966,52.268 183.455,52.268C182.447,52.268 182.13,52.84 181.966,53.629L181.824,54.299C182.3,54.182 182.521,54.142 183.099,53.964C183.855,53.747 184.222,53.393 184.244,52.821ZM179.179,53.747C179.652,51.539 180.687,50.12 183.726,50.12C185.541,50.12 186.894,50.908 186.837,52.525C186.773,54.398 185.775,55.266 183.382,55.976C182.207,56.331 182.187,56.331 181.351,56.548L181.208,57.218C181.138,57.573 181.166,57.888 181.679,57.888C182.685,57.888 184.162,57.395 185.484,56.823L185.949,58.795C184.759,59.525 182.904,60.116 181.207,60.116C179.214,60.116 178.396,59.248 178.453,57.612C178.464,57.257 178.517,56.863 178.611,56.449L179.179,53.747Z" style="fill:white;fill-rule:nonzero;"/>
        <path d="M194.031,52.643C192.785,53.314 192.322,53.57 191.193,54.26L189.99,59.919L187.207,59.919L189.171,50.553L191.632,50.139L191.529,51.44C192.474,50.889 193.238,50.494 194.08,50.139L194.031,52.643Z" style="fill:white;fill-rule:nonzero;"/>
        <path d="M192.802,62.344C193.804,61.359 193.958,60.846 194.15,59.919L195.707,52.584L194.326,52.584L194.8,50.316L196.181,50.316L196.462,49.055C196.931,46.925 197.714,45.998 200.042,45.998C200.832,45.998 201.753,46.137 202.494,46.413L201.845,48.602C201.416,48.444 200.652,48.306 200.216,48.306C199.585,48.306 199.384,48.463 199.267,48.956L198.962,50.316L201.449,50.316L200.779,52.584L198.49,52.584L196.88,60.234C196.597,61.575 196.091,62.522 194.539,64L192.802,62.344Z" style="fill:white;fill-rule:nonzero;"/>
        <path d="M203.541,57.001C203.445,57.513 203.556,57.71 204.05,57.71C204.759,57.71 205.544,57.297 206.193,56.764L207.07,52.604C206.697,52.525 206.283,52.505 205.988,52.505C204.546,52.505 204.345,53.215 204.134,54.142L203.541,57.001ZM205.964,59.919L205.916,59.091C205.226,59.604 204.203,60.116 202.822,60.116C200.73,60.116 200.359,58.854 200.81,56.705L201.353,54.122C201.828,51.834 202.794,50.139 206.583,50.139C207.589,50.139 208.904,50.316 210.232,50.731L208.312,59.919L205.964,59.919Z" style="fill:white;fill-rule:nonzero;"/>
        <path d="M210.873,57.671C210.89,57.179 210.945,56.764 211.082,56.212L211.708,53.53C212.335,50.81 213.681,50.12 216.404,50.12C217.253,50.12 218.076,50.297 218.621,50.514L217.871,52.762C217.404,52.604 216.835,52.486 216.283,52.486C215.021,52.486 214.591,52.88 214.355,53.984L213.742,56.902C213.718,57.02 213.693,57.179 213.689,57.277C213.677,57.592 213.83,57.75 214.185,57.75C214.896,57.75 216.232,57.356 216.91,57.159L217.087,59.387C216.265,59.781 214.912,60.116 213.886,60.116C211.675,60.116 210.814,59.367 210.873,57.671Z" style="fill:white;fill-rule:nonzero;"/>
        <path d="M224.554,52.821C224.566,52.486 224.279,52.268 223.765,52.268C222.759,52.268 222.443,52.84 222.277,53.629L222.136,54.299C222.613,54.182 222.832,54.142 223.41,53.964C224.167,53.747 224.535,53.393 224.554,52.821ZM219.492,53.747C219.962,51.539 220.998,50.12 224.037,50.12C225.851,50.12 227.207,50.908 227.15,52.525C227.083,54.398 226.087,55.266 223.695,55.976C222.517,56.331 222.498,56.331 221.664,56.548L221.521,57.218C221.449,57.573 221.478,57.888 221.99,57.888C222.998,57.888 224.474,57.395 225.796,56.823L226.259,58.795C225.07,59.525 223.214,60.116 221.517,60.116C219.525,60.116 218.707,59.248 218.765,57.612C218.777,57.257 218.83,56.863 218.923,56.449L219.492,53.747Z" style="fill:white;fill-rule:nonzero;"/>
        <path d="M47.536,2.472L6.098,2.472C2.807,2.472 0,5.357 0,8.645L0,23.183C0,37.758 12.356,49.577 27.103,49.577C41.849,49.577 54.202,37.758 54.202,23.183L54.202,17.319L54.202,9.991L54.202,8.645C54.202,5.357 50.828,2.472 47.536,2.472Z" style="fill:rgb(250,165,35);"/>
        <path d="M9.31,23.528C9.31,33.25 17.129,41.006 26.966,41.006C36.804,41.006 44.626,33.129 44.626,23.276L35.723,23.276C35.723,28.203 32.084,32.204 27.168,32.204C22.247,32.204 18.614,28.388 18.614,23.528L18.614,15.064L9.31,15.064L9.31,23.528Z" style="fill:white;"/>
        <path d="M9.31,23.337C9.31,33.057 17.129,40.911 26.966,40.911C36.804,40.911 44.626,33.129 44.626,23.276L35.723,23.276C35.723,28.203 32.084,32.108 27.168,32.108C22.247,32.108 18.614,28.194 18.614,23.337L18.614,15.064L9.31,15.064L9.31,23.337Z" style="fill:white;"/>
        <path d="M37.947,9.693L35.869,18.203L44.481,20.4L46.708,11.892L37.947,9.693Z" style="fill:white;"/>
        <path d="M224.694,14.902L225.012,16.245C225.103,16.63 224.858,16.941 224.464,16.941" style="fill:white;fill-rule:nonzero;"/>
        <path d="M199.116,12.596C199.037,12.968 198.94,13.438 198.875,13.749L196.07,26.88L199.021,13.046L199.116,12.596Z" style="fill:white;fill-rule:nonzero;"/>
        <path d="M115.061,21.383L113.512,26.871L115.061,21.385L115.061,21.383Z" style="fill:white;fill-rule:nonzero;"/>
        <path d="M225.012,16.245L224.205,12.826C223.566,10.352 221.76,9.183 217.698,9.183L200.615,9.183C200.221,9.183 199.829,9.36 199.749,9.745L193.267,40.481C193.183,40.87 193.158,41.146 193.203,41.338C193.249,41.536 194.008,41.499 194.397,41.499L200.315,41.499C200.711,41.499 201.43,41.529 201.639,41.444C201.859,41.354 201.955,40.768 202.036,40.381L204.126,29.604L206.68,17.65C206.764,17.267 207.151,16.953 207.544,16.953L224.464,16.941C224.855,16.941 225.103,16.629 225.012,16.245Z" style="fill:white;fill-rule:nonzero;"/>
        <path d="M249.083,3.786C248.688,3.79 241.58,3.786 241.58,3.786C241.187,3.786 240.681,4.208 240.461,4.533L227.291,23.912C227.064,24.237 226.811,24.226 226.723,23.843L225.75,19.596C225.667,19.21 225.274,18.896 224.875,18.896L216.409,18.896C216.019,18.896 215.784,19.222 215.886,19.602L219.682,32.907C219.792,33.288 219.8,33.91 219.704,34.29L217.934,41.03C217.841,41.412 218.083,41.527 218.481,41.527L226.84,41.527C227.234,41.527 227.639,41.414 227.736,41.03L229.506,34.197C229.604,33.816 229.876,33.297 230.111,32.979L251.609,4.47C251.851,4.158 251.816,3.784 251.424,3.784L249.083,3.786Z" style="fill:white;fill-rule:nonzero;"/>
        <path d="M160.939,9.209L153.297,9.209C152.909,9.209 152.508,9.346 152.431,9.732L149.906,21.549L147.39,32.863C147.309,33.247 146.919,33.22 146.527,33.22L141.504,33.22C136.538,33.22 137.11,30.081 138.131,25.377C138.145,25.331 141.318,9.732 141.318,9.732C141.388,9.348 141.13,9.209 140.742,9.209L133.461,9.209C133.069,9.209 132.679,9.348 132.601,9.732L129.673,25.366C128.212,33.819 128.169,41.256 137.97,41.502C138.131,41.508 153.449,41.502 153.449,41.502C153.845,41.502 154.235,41.372 154.319,40.991L157.643,25.313L160.955,9.569C160.955,9.569 161.072,9.209 160.939,9.209Z" style="fill:white;fill-rule:nonzero;"/>
        <path d="M84.833,9.183L76.641,9.183C76.248,9.183 75.852,9.276 75.765,9.663L74.286,16.059C74.202,16.437 74.454,16.74 74.85,16.74L82.693,16.74C83.09,16.74 83.483,16.383 83.566,16L84.99,9.557C84.99,9.557 85.104,9.183 84.833,9.183Z" style="fill:white;fill-rule:nonzero;"/>
        <path d="M74.318,18.896C73.929,18.896 73.529,19.207 73.445,19.592L72.34,24.471L69.876,35.737C69.876,35.737 68.565,41.726 68.439,42.102C68.439,42.102 67.335,46.426 64.698,46.252C63.471,46.171 62.068,45.89 62.068,45.89L62.064,45.89C61.327,45.667 61.275,46.432 61.185,46.815L59.559,53.834C59.465,54.218 59.717,54.563 60.106,54.568C60.106,54.568 63.633,55.066 66.123,55.066L66.533,55.066C72.685,55.066 75.935,51.449 78.013,41.626L80.448,30.256L82.732,19.678C82.816,19.292 82.584,18.935 82.191,18.935" style="fill:white;fill-rule:nonzero;"/>
        <path d="M183.905,22.659C183.905,23.085 182.556,23.004 182.556,23.004L171.814,22.926C171.443,22.926 171.336,22.406 171.311,22.033C171.31,22.021 171.337,21.587 171.369,21.48C172.201,18.6 174.677,16.954 178.604,16.954C183.023,16.954 183.967,19.146 183.967,21.576M180.272,9.135C166.493,9.135 163.204,17.653 161.374,26.094C159.543,34.702 159.699,41.504 173.957,41.504L187.001,41.504C187.387,41.497 187.774,41.143 187.851,40.762L189.253,35.302C189.334,34.915 189.073,34.801 188.683,34.801L175.86,34.801C171.214,34.801 169.551,33.371 169.713,30.158C169.71,29.792 170.129,28.861 170.522,28.861L190.275,28.861C191.142,28.856 191.169,28.349 191.169,28.349C193.181,19.273 193.312,9.135 180.272,9.135Z" style="fill:white;fill-rule:nonzero;"/>
        <path d="M113.438,26.871L111.85,32.298C111.741,32.679 111.292,32.933 110.899,32.933L102.708,32.933C96.49,32.933 94.98,28.129 96.49,20.959C98.007,13.631 101.014,9.098 107.127,8.639C115.486,8.009 117.197,13.912 115.171,20.697L113.438,26.871ZM120.718,32.622C120.718,32.622 124.577,23.247 125.453,17.829C126.651,10.578 123.024,0.062 108.999,0.062C95.057,0.062 89.007,10.101 86.691,21.016C84.385,32.01 87.404,41.582 101.27,41.504L122.431,41.492C122.821,41.49 123.228,41.175 123.328,40.799L125.111,34.006C125.208,33.622 124.967,33.311 124.57,33.31L122.866,33.297L121.163,33.289C120.827,33.286 120.634,33.069 120.679,32.781C120.686,32.728 120.692,32.676 120.718,32.622Z" style="fill:white;fill-rule:nonzero;"/>
    </g>
</svg>
