<?xml version="1.0" encoding="UTF-8" standalone="no"?>
<!DOCTYPE svg PUBLIC "-//W3C//DTD SVG 1.1//EN" "http://www.w3.org/Graphics/SVG/1.1/DTD/svg11.dtd">
<svg width="100%" height="100%" viewBox="0 0 1163 296" version="1.1" xmlns="http://www.w3.org/2000/svg" xmlns:xlink="http://www.w3.org/1999/xlink" xml:space="preserve" style="fill-rule:evenodd;clip-rule:evenodd;stroke-linejoin:round;stroke-miterlimit:1.41421;">
    <g transform="matrix(4.16667,0,0,4.16667,0,0)">
        <path d="M107.212,63.237C107.191,63.849 107.149,64.479 107.069,65.149L109.559,60.636L109.285,59.164L111.785,58.781L112.694,65.035L113.844,61.114C113.935,60.731 113.982,60.445 113.993,60.158C114.002,59.871 113.975,59.565 113.875,59.145L116.493,58.647C116.588,59.183 116.649,59.642 116.633,60.12C116.61,60.751 116.452,61.439 116.014,62.472L113.906,68.132L110.789,68.132L110.133,63.906L107.692,68.132L104.67,68.132C104.789,64.193 104.646,61.726 104.373,59.145L106.968,58.743C107.166,60.177 107.269,61.611 107.212,63.237Z" style="fill:white;fill-rule:nonzero;"/>
        <path d="M123.443,61.076C122.235,61.726 121.787,61.975 120.693,62.644L119.526,68.132L116.831,68.132L118.734,59.049L121.119,58.647L121.017,59.909C121.935,59.374 122.675,58.991 123.49,58.647L123.443,61.076Z" style="fill:white;fill-rule:nonzero;"/>
        <path d="M125.914,54.918L128.7,54.536L128.082,57.404L125.316,57.787L125.914,54.918ZM125.043,59.03L127.83,58.647L125.816,68.132L123.121,68.132L125.043,59.03Z" style="fill:white;fill-rule:nonzero;"/>
        <path d="M132.794,60.98L131.81,65.627C131.788,65.723 131.765,65.818 131.763,65.876C131.759,66.01 131.833,66.067 132.025,66.067C132.484,66.067 133.005,65.876 133.491,65.685L133.96,67.559C133.181,67.979 132.06,68.324 130.97,68.324C129.613,68.324 128.909,67.673 128.948,66.564C128.951,66.43 128.977,66.296 129,66.163L130.099,60.98L128.723,60.98L129.179,58.82L130.557,58.82L131.017,56.582L133.802,56.2L133.252,58.82L135.47,58.82L134.859,60.98L132.794,60.98Z" style="fill:white;fill-rule:nonzero;"/>
        <path d="M140.911,61.248C140.922,60.923 140.643,60.712 140.146,60.712C139.17,60.712 138.864,61.267 138.704,62.032L138.567,62.683C139.03,62.567 139.241,62.529 139.801,62.357C140.536,62.146 140.891,61.803 140.911,61.248ZM136.004,62.146C136.46,60.005 137.465,58.628 140.41,58.628C142.168,58.628 143.48,59.393 143.425,60.961C143.362,62.778 142.396,63.62 140.078,64.308C138.937,64.652 138.918,64.652 138.108,64.862L137.97,65.512C137.901,65.857 137.928,66.163 138.425,66.163C139.401,66.163 140.833,65.685 142.114,65.13L142.563,67.042C141.41,67.75 139.612,68.324 137.968,68.324C136.037,68.324 135.244,67.482 135.299,65.895C135.311,65.551 135.364,65.168 135.454,64.767L136.004,62.146Z" style="fill:white;fill-rule:nonzero;"/>
        <path d="M150.381,55.014L153.167,54.632L150.325,68.132L147.629,68.132L150.381,55.014Z" style="fill:white;fill-rule:nonzero;"/>
        <path d="M158.422,61.248C158.434,60.923 158.155,60.712 157.658,60.712C156.682,60.712 156.375,61.267 156.215,62.032L156.079,62.683C156.542,62.567 156.752,62.529 157.313,62.357C158.047,62.146 158.403,61.803 158.422,61.248ZM153.516,62.146C153.972,60.005 154.977,58.628 157.921,58.628C159.68,58.628 160.992,59.393 160.937,60.961C160.874,62.778 159.908,63.62 157.589,64.308C156.449,64.652 156.43,64.652 155.62,64.862L155.482,65.512C155.413,65.857 155.44,66.163 155.937,66.163C156.913,66.163 158.344,65.685 159.625,65.13L160.075,67.042C158.921,67.75 157.124,68.324 155.48,68.324C153.548,68.324 152.755,67.482 152.811,65.895C152.823,65.551 152.875,65.168 152.965,64.767L153.516,62.146Z" style="fill:white;fill-rule:nonzero;"/>
        <path d="M161.16,67.711L161.746,65.723C162.444,65.972 163.239,66.201 164.252,66.201C165.151,66.201 165.217,65.933 165.309,65.493C165.4,65.073 165.14,64.843 164.108,64.289C162.195,63.256 162.142,62.567 162.44,61.172C162.873,59.164 163.485,58.628 166.066,58.628C166.945,58.628 168.066,58.82 168.823,59.068L168.311,61.095C167.629,60.904 166.623,60.751 165.972,60.751C165.169,60.751 165.05,60.847 164.937,61.343C164.846,61.784 164.938,61.879 165.82,62.357C167.921,63.505 168.233,63.906 167.914,65.379C167.458,67.482 166.817,68.324 164.025,68.324C163.165,68.324 161.969,68.075 161.16,67.711Z" style="fill:white;fill-rule:nonzero;"/>
        <path d="M168.884,67.711L169.47,65.723C170.168,65.972 170.963,66.201 171.977,66.201C172.875,66.201 172.942,65.933 173.034,65.493C173.125,65.073 172.865,64.843 171.833,64.289C169.919,63.256 169.867,62.567 170.165,61.172C170.597,59.164 171.209,58.628 173.791,58.628C174.669,58.628 175.791,58.82 176.547,59.068L176.036,61.095C175.354,60.904 174.347,60.751 173.697,60.751C172.894,60.751 172.775,60.847 172.662,61.343C172.571,61.784 172.663,61.879 173.544,62.357C175.646,63.505 175.958,63.906 175.638,65.379C175.182,67.482 174.542,68.324 171.75,68.324C170.889,68.324 169.694,68.075 168.884,67.711Z" style="fill:white;fill-rule:nonzero;"/>
        <path d="M176.271,70.216L177.817,68.132L176.803,68.132L177.468,64.958L180.164,64.958L179.434,68.362L177.218,71L176.271,70.216Z" style="fill:white;fill-rule:nonzero;"/>
        <path d="M188.544,65.34C188.431,65.838 188.557,66.067 189.035,66.067C189.991,66.067 190.696,65.57 191.228,65.111L192.099,60.961C191.795,60.904 191.433,60.885 191.051,60.885C189.655,60.885 189.342,61.63 189.139,62.529L188.544,65.34ZM191.008,68.132L190.959,67.329C190.271,67.884 189.3,68.324 187.961,68.324C185.935,68.324 185.481,67.1 185.917,65.015L186.444,62.51C186.904,60.292 187.536,58.628 191.455,58.628C191.742,58.628 192.333,58.667 192.58,58.724L193.359,55.014L196.125,54.632L193.284,68.132L191.008,68.132Z" style="fill:white;fill-rule:nonzero;"/>
        <path d="M202.121,61.937C202.145,61.248 201.738,60.885 200.858,60.885C199.844,60.885 199.233,61.401 199.049,62.319L198.567,64.633C198.542,64.767 198.519,64.9 198.515,65.015C198.492,65.685 198.899,66.067 199.779,66.067C200.811,66.067 201.402,65.551 201.587,64.633L202.07,62.319C202.093,62.185 202.117,62.051 202.121,61.937ZM195.792,65.207C195.8,64.996 195.828,64.767 195.874,64.556L196.332,62.396C196.834,60.005 198.05,58.628 201.3,58.628C203.805,58.628 204.882,60.062 204.825,61.726C204.817,61.937 204.79,62.166 204.744,62.396L204.287,64.556C203.806,66.794 202.682,68.324 199.298,68.324C196.927,68.324 195.734,66.908 195.792,65.207Z" style="fill:white;fill-rule:nonzero;"/>
        <path d="M221.283,61.803C221.306,61.688 221.329,61.592 221.331,61.516C221.337,61.324 221.245,61.248 220.977,61.248C220.48,61.248 219.296,61.745 218.518,62.146L217.257,68.132L214.581,68.132L215.911,61.803C215.933,61.688 215.957,61.592 215.958,61.516C215.965,61.324 215.873,61.248 215.605,61.248C215.108,61.248 213.905,61.745 213.165,62.127L211.904,68.132L209.208,68.132L211.113,59.049L213.497,58.647L213.442,59.68C214.919,58.991 216.079,58.628 217.15,58.628C218.067,58.628 218.531,59.03 218.717,59.718C220.161,58.896 221.452,58.628 222.522,58.628C223.765,58.628 224.199,59.336 224.158,60.521C224.146,60.847 224.114,61.21 224.025,61.592L222.649,68.132L219.953,68.132L221.283,61.803Z" style="fill:white;fill-rule:nonzero;"/>
        <path d="M231.39,61.937C231.415,61.248 231.007,60.885 230.127,60.885C229.114,60.885 228.502,61.401 228.319,62.319L227.836,64.633C227.812,64.767 227.789,64.9 227.785,65.015C227.761,65.685 228.168,66.067 229.048,66.067C230.081,66.067 230.671,65.551 230.857,64.633L231.339,62.319C231.363,62.185 231.386,62.051 231.39,61.937ZM225.062,65.207C225.07,64.996 225.097,64.767 225.143,64.556L225.601,62.396C226.104,60.005 227.32,58.628 230.57,58.628C233.075,58.628 234.152,60.062 234.094,61.726C234.086,61.937 234.059,62.166 234.013,62.396L233.556,64.556C233.076,66.794 231.952,68.324 228.568,68.324C226.197,68.324 225.003,66.908 225.062,65.207Z" style="fill:white;fill-rule:nonzero;"/>
        <path d="M241.248,61.076C240.04,61.726 239.591,61.975 238.498,62.644L237.331,68.132L234.635,68.132L236.54,59.049L238.923,58.647L238.822,59.909C239.74,59.374 240.48,58.991 241.294,58.647L241.248,61.076Z" style="fill:white;fill-rule:nonzero;"/>
        <path d="M246.767,61.248C246.779,60.923 246.5,60.712 246.002,60.712C245.027,60.712 244.72,61.267 244.56,62.032L244.423,62.683C244.886,62.567 245.097,62.529 245.658,62.357C246.392,62.146 246.748,61.803 246.767,61.248ZM241.861,62.146C242.317,60.005 243.322,58.628 246.266,58.628C248.025,58.628 249.336,59.393 249.282,60.961C249.218,62.778 248.252,63.62 245.933,64.308C244.793,64.652 244.775,64.652 243.964,64.862L243.827,65.512C243.757,65.857 243.785,66.163 244.282,66.163C245.257,66.163 246.689,65.685 247.97,65.13L248.419,67.042C247.266,67.75 245.468,68.324 243.825,68.324C241.893,68.324 241.1,67.482 241.156,65.895C241.167,65.551 241.22,65.168 241.31,64.767L241.861,62.146Z" style="fill:white;fill-rule:nonzero;"/>
        <path d="M250.384,64.958L253.08,64.958L252.415,68.132L249.719,68.132L250.384,64.958Z" style="fill:white;fill-rule:nonzero;"/>
        <path d="M3.27,13.695C-1.287,20.242 -0.723,28.76 2.762,35.717C2.84,35.887 2.93,36.047 3.016,36.211C3.064,36.318 3.12,36.424 3.18,36.529C3.206,36.586 3.247,36.65 3.281,36.706C3.337,36.82 3.396,36.924 3.456,37.033C3.568,37.221 3.68,37.413 3.792,37.6C3.855,37.705 3.916,37.809 3.986,37.914C4.105,38.115 4.244,38.314 4.367,38.516C4.423,38.602 4.475,38.686 4.535,38.77C4.714,39.042 4.894,39.312 5.091,39.576C5.091,39.584 5.099,39.591 5.106,39.595C5.136,39.64 5.169,39.683 5.199,39.724C5.367,39.953 5.535,40.177 5.711,40.399C5.771,40.481 5.837,40.563 5.897,40.644C6.058,40.838 6.215,41.032 6.371,41.224C6.431,41.293 6.491,41.366 6.554,41.437C6.763,41.689 6.983,41.939 7.208,42.186C7.208,42.189 7.215,42.194 7.219,42.2C7.226,42.209 7.233,42.219 7.249,42.228C7.465,42.465 7.685,42.698 7.909,42.93C7.98,43.001 8.051,43.07 8.129,43.145C8.301,43.318 8.473,43.494 8.656,43.665C8.73,43.736 8.805,43.805 8.876,43.874C9.115,44.098 9.354,44.322 9.604,44.537C9.607,44.541 9.611,44.542 9.615,44.546C9.656,44.582 9.701,44.617 9.738,44.652C9.958,44.841 10.179,45.027 10.402,45.212C10.492,45.287 10.582,45.358 10.671,45.431C10.858,45.578 11.044,45.72 11.231,45.862C11.328,45.935 11.425,46.009 11.526,46.086C11.728,46.237 11.937,46.384 12.142,46.53C12.216,46.584 12.291,46.638 12.37,46.688C12.388,46.705 12.411,46.72 12.429,46.735C12.634,46.87 12.829,47 13.03,47.133C13.12,47.19 13.206,47.247 13.292,47.304C13.605,47.504 13.918,47.696 14.229,47.883C14.318,47.93 14.407,47.98 14.493,48.03C14.725,48.165 14.96,48.297 15.199,48.424C15.329,48.497 15.46,48.561 15.594,48.627C15.755,48.715 15.923,48.805 16.095,48.893C16.136,48.909 16.177,48.924 16.214,48.945C16.285,48.977 16.352,49.012 16.419,49.045C16.681,49.174 16.949,49.296 17.226,49.419C17.278,49.443 17.334,49.465 17.39,49.494C17.699,49.628 18.009,49.757 18.327,49.882C18.401,49.91 18.476,49.943 18.554,49.969C18.842,50.082 19.14,50.191 19.435,50.298C19.473,50.313 19.506,50.324 19.543,50.337C19.872,50.449 20.196,50.555 20.529,50.658C20.607,50.681 20.686,50.708 20.768,50.729C21.107,50.832 21.436,50.951 21.783,51.017C43.815,55.033 50.217,37.775 50.217,37.775C44.838,44.775 35.294,46.625 26.254,44.568C25.918,44.492 25.586,44.386 25.247,44.285C25.168,44.262 25.079,44.236 25,44.208C24.672,44.109 24.347,44.003 24.03,43.895C23.985,43.88 23.937,43.863 23.892,43.844C23.605,43.746 23.321,43.637 23.037,43.527C22.959,43.494 22.877,43.465 22.798,43.436C22.484,43.312 22.175,43.18 21.873,43.047C21.805,43.023 21.749,42.995 21.686,42.969C21.421,42.848 21.167,42.729 20.909,42.605C20.831,42.572 20.76,42.534 20.682,42.495C20.48,42.4 20.279,42.293 20.081,42.189C19.943,42.118 19.808,42.053 19.678,41.98C19.435,41.85 19.192,41.711 18.95,41.577C18.875,41.526 18.793,41.483 18.707,41.437C18.394,41.25 18.076,41.058 17.767,40.86C17.677,40.804 17.595,40.748 17.513,40.69C17.285,40.547 17.061,40.396 16.841,40.246C16.77,40.196 16.699,40.144 16.625,40.091C16.412,39.942 16.203,39.791 15.99,39.636C15.9,39.565 15.807,39.494 15.71,39.423C15.52,39.276 15.329,39.13 15.139,38.977C15.057,38.908 14.971,38.841 14.889,38.774C14.643,38.576 14.411,38.378 14.176,38.173C14.153,38.148 14.12,38.128 14.094,38.107C13.844,37.884 13.594,37.654 13.347,37.426C13.272,37.355 13.21,37.29 13.135,37.223C12.956,37.047 12.776,36.876 12.601,36.698C12.526,36.624 12.459,36.555 12.388,36.484C12.164,36.258 11.944,36.025 11.728,35.786C11.716,35.776 11.705,35.766 11.694,35.752C11.466,35.502 11.246,35.249 11.026,34.991C10.966,34.922 10.91,34.851 10.851,34.784C10.69,34.586 10.529,34.386 10.365,34.188C10.313,34.112 10.253,34.039 10.193,33.964C10.003,33.72 9.82,33.476 9.637,33.224C4.621,26.38 2.811,16.935 6.823,9.185" style="fill:rgb(120,207,244);fill-rule:nonzero;"/>
        <path d="M17.416,8.177C14.112,12.917 14.295,19.264 16.867,24.28C17.293,25.12 17.778,25.936 18.323,26.71C18.815,27.419 19.36,28.259 20.021,28.829C20.252,29.09 20.502,29.344 20.76,29.599C20.824,29.663 20.887,29.725 20.954,29.792C21.201,30.028 21.451,30.262 21.708,30.489C21.716,30.499 21.73,30.508 21.738,30.518C21.742,30.52 21.746,30.523 21.746,30.523C22.033,30.777 22.324,31.018 22.627,31.253C22.697,31.303 22.761,31.359 22.832,31.41C23.13,31.643 23.437,31.867 23.746,32.087C23.757,32.091 23.765,32.098 23.78,32.104C23.914,32.201 24.056,32.291 24.202,32.384C24.265,32.425 24.332,32.473 24.396,32.513C24.623,32.66 24.847,32.798 25.079,32.935C25.112,32.951 25.146,32.97 25.179,32.986C25.374,33.104 25.579,33.22 25.784,33.324C25.855,33.367 25.926,33.401 25.997,33.44C26.139,33.511 26.28,33.585 26.418,33.658C26.437,33.668 26.463,33.679 26.486,33.688C26.777,33.832 27.072,33.964 27.363,34.097C27.434,34.125 27.494,34.149 27.561,34.177C27.8,34.28 28.042,34.381 28.281,34.472C28.389,34.508 28.49,34.55 28.591,34.586C28.811,34.664 29.035,34.741 29.255,34.813C29.363,34.849 29.46,34.879 29.558,34.911C29.871,35.01 30.189,35.137 30.521,35.188C47.526,38.009 51.46,24.909 51.46,24.909C47.918,30.012 41.061,32.441 33.746,30.542C33.417,30.458 33.096,30.364 32.782,30.262C32.682,30.236 32.592,30.204 32.495,30.17C32.268,30.098 32.04,30.021 31.819,29.939C31.719,29.902 31.614,29.864 31.514,29.825C31.271,29.73 31.028,29.637 30.793,29.532C30.722,29.504 30.655,29.48 30.599,29.45C30.297,29.319 29.998,29.179 29.707,29.04C29.558,28.963 29.412,28.888 29.263,28.81C29.173,28.765 29.087,28.722 29.009,28.681C28.811,28.579 28.628,28.47 28.441,28.36C28.397,28.336 28.352,28.313 28.307,28.287C28.08,28.149 27.844,28.011 27.628,27.867C27.553,27.825 27.49,27.776 27.419,27.731C27.27,27.636 27.124,27.541 26.971,27.438C26.661,27.224 26.359,26.996 26.057,26.768C25.985,26.71 25.918,26.658 25.851,26.602C22.641,24.075 20.103,20.619 18.901,16.706C17.632,12.641 17.912,8.078 20.1,4.377" style="fill:rgb(120,207,244);fill-rule:nonzero;"/>
        <path d="M29.308,4.054C27.359,6.913 27.172,10.465 28.516,13.619C29.942,16.971 32.857,19.6 36.254,20.845C36.392,20.899 36.53,20.944 36.672,20.992C36.735,21.011 36.795,21.031 36.862,21.052C37.06,21.113 37.258,21.188 37.463,21.228C46.857,23.042 49.403,16.407 50.086,15.431C47.851,18.645 44.1,19.415 39.497,18.297C39.135,18.209 38.739,18.079 38.389,17.952C37.941,17.793 37.497,17.609 37.064,17.405C36.254,17.012 35.47,16.538 34.746,15.989C30.625,12.865 28.072,6.906 30.759,2.052" style="fill:rgb(120,207,244);fill-rule:nonzero;"/>
        <path d="M246.995,17.447L247.364,19.004C247.468,19.45 247.185,19.81 246.729,19.81" style="fill:white;fill-rule:nonzero;"/>
        <path d="M217.358,14.775C217.265,15.206 217.153,15.751 217.079,16.111L213.828,31.327L217.247,15.297L217.358,14.775Z" style="fill:white;fill-rule:nonzero;"/>
        <path d="M119.963,24.957L118.167,31.315L119.963,24.959L119.963,24.957Z" style="fill:white;fill-rule:nonzero;"/>
        <path d="M247.364,19.004L246.427,15.042C245.688,12.175 243.594,10.82 238.888,10.82L219.094,10.82C218.638,10.82 218.183,11.026 218.09,11.472L210.581,47.086C210.483,47.536 210.454,47.856 210.505,48.079C210.558,48.309 211.439,48.266 211.89,48.266L218.747,48.266C219.206,48.266 220.039,48.3 220.281,48.202C220.535,48.098 220.647,47.419 220.74,46.97L223.163,34.482L226.123,20.631C226.219,20.187 226.667,19.823 227.123,19.823L246.729,19.81C247.181,19.81 247.468,19.448 247.364,19.004Z" style="fill:white;fill-rule:nonzero;"/>
        <path d="M275.255,4.566C274.796,4.572 266.56,4.566 266.56,4.566C266.105,4.566 265.519,5.056 265.265,5.433L250.002,27.887C249.742,28.264 249.447,28.251 249.346,27.807L248.218,22.886C248.122,22.439 247.667,22.076 247.204,22.076L237.394,22.076C236.943,22.076 236.67,22.453 236.79,22.893L241.187,38.31C241.314,38.751 241.325,39.472 241.212,39.913L239.162,47.722C239.053,48.164 239.333,48.298 239.796,48.298L249.482,48.298C249.937,48.298 250.408,48.166 250.519,47.722L252.571,39.804C252.683,39.362 253,38.762 253.272,38.394L278.181,5.359C278.461,4.998 278.421,4.564 277.966,4.564L275.255,4.566Z" style="fill:white;fill-rule:nonzero;"/>
        <path d="M173.121,10.851L164.267,10.851C163.816,10.851 163.353,11.009 163.263,11.457L160.337,25.149L157.422,38.259C157.329,38.703 156.877,38.673 156.421,38.673L150.603,38.673C144.847,38.673 145.511,35.036 146.695,29.585C146.709,29.531 150.386,11.457 150.386,11.457C150.468,11.011 150.169,10.851 149.718,10.851L141.283,10.851C140.828,10.851 140.375,11.011 140.287,11.457L136.893,29.572C135.201,39.366 135.15,47.984 146.508,48.269C146.695,48.275 164.443,48.269 164.443,48.269C164.902,48.269 165.353,48.118 165.451,47.677L169.302,29.51L173.139,11.269C173.139,11.269 173.275,10.851 173.121,10.851Z" style="fill:white;fill-rule:nonzero;"/>
        <path d="M84.937,10.82L75.445,10.82C74.989,10.82 74.53,10.929 74.43,11.376L72.716,18.788C72.619,19.226 72.911,19.577 73.37,19.577L82.458,19.577C82.918,19.577 83.373,19.163 83.47,18.72L85.12,11.253C85.12,11.253 85.251,10.82 84.937,10.82Z" style="fill:white;fill-rule:nonzero;"/>
        <path d="M72.754,22.076C72.302,22.076 71.839,22.436 71.742,22.882L70.462,28.535L67.606,41.589C67.606,41.589 66.087,48.528 65.942,48.963C65.942,48.963 64.663,53.974 61.606,53.772C60.185,53.679 58.559,53.353 58.559,53.353L58.555,53.353C57.701,53.095 57.641,53.981 57.536,54.425L55.651,62.558C55.543,63.003 55.835,63.403 56.286,63.409C56.286,63.409 60.373,63.985 63.258,63.985L63.732,63.985C70.861,63.985 74.627,59.794 77.035,48.412L79.856,35.238L82.503,22.981C82.6,22.535 82.331,22.121 81.876,22.121" style="fill:white;fill-rule:nonzero;"/>
        <path d="M199.732,26.435C199.732,26.929 198.169,26.835 198.169,26.835L185.722,26.745C185.292,26.745 185.169,26.142 185.139,25.71C185.138,25.696 185.17,25.193 185.207,25.069C186.169,21.731 189.04,19.825 193.59,19.825C198.71,19.825 199.804,22.365 199.804,25.181M195.523,10.766C179.556,10.766 175.745,20.634 173.625,30.416C171.504,40.389 171.685,48.271 188.206,48.271L203.32,48.271C203.767,48.264 204.215,47.854 204.305,47.411L205.929,41.085C206.023,40.637 205.72,40.505 205.269,40.505L190.41,40.505C185.028,40.505 183.101,38.847 183.289,35.124C183.285,34.7 183.77,33.622 184.225,33.622L207.113,33.622C208.118,33.616 208.15,33.028 208.15,33.028C210.48,22.512 210.632,10.766 195.523,10.766Z" style="fill:white;fill-rule:nonzero;"/>
        <path d="M118.082,31.315L116.242,37.604C116.115,38.046 115.596,38.34 115.14,38.34L105.648,38.34C98.444,38.34 96.694,32.773 98.444,24.466C100.203,15.975 103.686,10.722 110.77,10.189C120.456,9.46 122.438,16.3 120.09,24.162L118.082,31.315ZM126.517,37.979C126.517,37.979 130.989,27.117 132.003,20.838C133.392,12.437 129.188,0.252 112.938,0.252C96.784,0.252 89.774,11.884 87.09,24.532C84.418,37.271 87.917,48.361 103.982,48.271L128.502,48.257C128.953,48.255 129.425,47.89 129.541,47.454L131.608,39.583C131.72,39.139 131.44,38.778 130.981,38.776L129.006,38.762L127.032,38.753C126.644,38.749 126.42,38.497 126.472,38.163C126.479,38.103 126.487,38.042 126.517,37.979Z" style="fill:white;fill-rule:nonzero;"/>
    </g>
</svg>
