<?xml version="1.0" encoding="UTF-8" standalone="no"?>
<!DOCTYPE svg PUBLIC "-//W3C//DTD SVG 1.1//EN" "http://www.w3.org/Graphics/SVG/1.1/DTD/svg11.dtd">
<svg width="100%" height="100%" viewBox="0 0 1300 450" version="1.1" xmlns="http://www.w3.org/2000/svg" xmlns:xlink="http://www.w3.org/1999/xlink" xml:space="preserve" style="fill-rule:evenodd;clip-rule:evenodd;stroke-linejoin:round;stroke-miterlimit:1.41421;">
    <g transform="matrix(1,0,0,1,243.359,-10.6381)">
        <g transform="matrix(1.21537,0,0,1.21537,58.7705,126.429)">
            <circle cx="201.541" cy="88.629" r="176.444" style="fill:rgb(0,152,209);"/>
        </g>
        <g transform="matrix(0.674099,0.131564,-0.185064,0.948221,108.417,-14.1433)">
            <path d="M429.324,8.635C542.729,8.635 634.799,100.705 634.799,214.11C634.799,327.515 542.729,419.585 429.324,419.585C315.92,419.585 223.849,327.515 223.849,214.11C223.849,100.705 315.92,8.635 429.324,8.635Z" style="fill:rgb(0,109,150);"/>
        </g>
        <g transform="matrix(1,0,0,1,145.929,355.696)">
            <text x="0px" y="0px" style="font-family:'Arial-Black', 'Arial Black', sans-serif;font-weight:900;font-size:347.813px;fill:rgb(10,73,123);">M</text>
        </g>
        <g transform="matrix(1,0,0,1,138.929,355.696)">
            <text x="0px" y="0px" style="font-family:'Arial-Black', 'Arial Black', sans-serif;font-weight:900;font-size:347.813px;fill:white;">M</text>
        </g>
    </g>
    <g transform="matrix(1.73886,0,0,1.73886,-744.056,-254.881)">
        <path d="M493.749,196.426L493.749,208.517L505.84,208.517L505.84,196.426L493.749,196.426ZM494.577,233.029C495.405,238.826 495.736,242.967 495.736,250.254L495.736,336.048C495.736,345.986 492.093,350.126 483.646,350.126C477.518,350.126 473.874,347.973 469.402,341.845L462.114,347.973C468.739,355.095 474.039,357.579 482.983,357.579C496.896,357.579 504.018,350.623 504.018,336.876L504.018,250.254C504.018,242.801 504.349,238.66 505.177,233.029L494.577,233.029Z" style="fill:white;fill-rule:nonzero;"/>
        <path d="M526.046,296.629C527.371,303.089 528.53,305.904 530.849,309.217C536.48,316.836 547.412,321.142 561.158,321.142C582.524,321.142 595.609,311.536 595.609,295.967C595.609,288.017 592.627,282.22 586.334,278.245C582.027,275.595 577.555,274.104 563.477,270.957C555.03,268.97 550.558,267.645 546.749,265.989C541.283,263.67 538.468,259.86 538.468,254.892C538.468,245.12 547.743,238.329 560.827,238.329C568.612,238.329 574.905,240.648 579.212,245.12C581.696,247.604 582.69,249.757 583.683,254.56L592.462,252.573C590.474,245.451 588.155,241.642 583.849,238.164C578.383,233.526 570.433,231.042 560.496,231.042C542.277,231.042 529.855,240.482 529.855,254.726C529.855,260.689 532.008,265.823 535.983,269.135C540.952,273.276 547.246,275.595 560.993,278.411C582.193,282.717 586.996,286.029 586.996,296.132C586.996,306.898 577.224,313.689 561.821,313.689C552.877,313.689 545.59,311.536 541.283,307.561C537.805,304.248 536.315,300.936 535.321,294.642L526.046,296.629Z" style="fill:white;fill-rule:nonzero;"/>
        <path d="M929.344,321.307C954.353,321.307 970.584,303.586 970.584,276.092C970.584,248.764 954.353,231.207 928.847,231.207C903.34,231.207 887.109,248.764 887.109,276.423C887.109,303.917 903.506,321.307 929.344,321.307ZM929.344,238.495C949.384,238.495 961.972,253.07 961.972,276.092C961.972,299.611 949.55,313.854 929.012,313.854C908.475,313.854 895.722,299.611 895.722,276.423C895.722,252.904 908.475,238.495 929.344,238.495Z" style="fill:white;fill-rule:nonzero;"/>
        <path d="M1042.8,233.029C1036.5,231.87 1033.36,231.539 1029.71,231.539C1015.97,231.539 1007.68,236.342 1000.73,248.267L1000.73,233.029L991.288,233.029C992.116,238.826 992.447,242.967 992.447,250.254L992.447,302.261C992.447,308.057 992.116,312.695 991.288,319.486L1001.89,319.486C1001.06,313.192 1000.73,309.051 1000.73,302.261L1000.73,267.148C1000.73,261.517 1002.72,255.554 1006.52,250.585C1011.83,243.298 1018.95,239.489 1027.56,239.489C1031.2,239.489 1034.02,239.985 1040.15,241.807L1042.8,233.029Z" style="fill:white;fill-rule:nonzero;"/>
        <path d="M1130.58,276.423C1129.92,263.007 1128.26,256.548 1123.62,248.598C1117,237.335 1106.07,231.207 1091.99,231.207C1068.8,231.207 1053.56,249.095 1053.56,276.423C1053.56,304.082 1068.97,321.473 1093.31,321.473C1104.41,321.473 1114.02,317.829 1121.47,310.376C1125.11,306.898 1126.93,304.082 1130.08,297.457L1122.13,293.648C1120.14,298.948 1118.99,301.101 1116.34,304.082C1110.54,310.873 1102.75,314.186 1093.48,314.186C1083.21,314.186 1074.43,309.879 1068.97,301.929C1064.33,295.139 1062.51,289.011 1062.01,276.423L1130.58,276.423ZM1062.51,268.97C1063.83,260.357 1065.32,255.72 1068.97,250.42C1074.43,242.47 1081.88,238.495 1091.66,238.495C1101.26,238.495 1109.54,242.47 1114.84,249.923C1118.99,255.389 1120.64,260.192 1121.47,268.97L1062.51,268.97Z" style="fill:white;fill-rule:nonzero;"/>
    </g>
</svg>
